<mxfile host="app.diagrams.net" modified="2024-01-17T18:19:46.921Z" agent="Mozilla/5.0 (X11; Ubuntu; Linux x86_64; rv:121.0) Gecko/20100101 Firefox/121.0" etag="ppPvN4Mizv859IY8imcq" version="22.1.18" type="github">
  <diagram id="R2lEEEUBdFMjLlhIrx00" name="Page-1">
    <mxGraphModel dx="2450" dy="729" grid="1" gridSize="10" guides="1" tooltips="1" connect="1" arrows="1" fold="1" page="1" pageScale="1" pageWidth="850" pageHeight="1100" math="0" shadow="0" extFonts="Permanent Marker^https://fonts.googleapis.com/css?family=Permanent+Marker">
      <root>
        <mxCell id="0" />
        <mxCell id="1" parent="0" />
        <mxCell id="E11eB3YZprWoZ26BGaYE-14" style="edgeStyle=orthogonalEdgeStyle;rounded=0;orthogonalLoop=1;jettySize=auto;html=1;exitX=1;exitY=0.5;exitDx=0;exitDy=0;entryX=0;entryY=0.5;entryDx=0;entryDy=0;fillColor=#FFB570;" edge="1" parent="1" source="E11eB3YZprWoZ26BGaYE-1" target="E11eB3YZprWoZ26BGaYE-8">
          <mxGeometry relative="1" as="geometry" />
        </mxCell>
        <mxCell id="E11eB3YZprWoZ26BGaYE-20" style="edgeStyle=orthogonalEdgeStyle;rounded=0;orthogonalLoop=1;jettySize=auto;html=1;fillColor=#FFB570;" edge="1" parent="1" source="E11eB3YZprWoZ26BGaYE-1" target="E11eB3YZprWoZ26BGaYE-6">
          <mxGeometry relative="1" as="geometry" />
        </mxCell>
        <mxCell id="E11eB3YZprWoZ26BGaYE-1" value="Customer" style="rounded=0;whiteSpace=wrap;html=1;fillColor=#D5E8D4;" vertex="1" parent="1">
          <mxGeometry x="140" y="110" width="120" height="60" as="geometry" />
        </mxCell>
        <mxCell id="E11eB3YZprWoZ26BGaYE-16" style="edgeStyle=orthogonalEdgeStyle;rounded=0;orthogonalLoop=1;jettySize=auto;html=1;entryX=0;entryY=0.5;entryDx=0;entryDy=0;fillColor=#FFB570;" edge="1" parent="1" source="E11eB3YZprWoZ26BGaYE-2" target="E11eB3YZprWoZ26BGaYE-9">
          <mxGeometry relative="1" as="geometry" />
        </mxCell>
        <mxCell id="E11eB3YZprWoZ26BGaYE-18" style="edgeStyle=orthogonalEdgeStyle;rounded=0;orthogonalLoop=1;jettySize=auto;html=1;entryX=0.5;entryY=0;entryDx=0;entryDy=0;fillColor=#FFB570;" edge="1" parent="1" source="E11eB3YZprWoZ26BGaYE-2" target="E11eB3YZprWoZ26BGaYE-7">
          <mxGeometry relative="1" as="geometry" />
        </mxCell>
        <mxCell id="E11eB3YZprWoZ26BGaYE-2" value="Items" style="rounded=0;whiteSpace=wrap;html=1;fillColor=#D5E8D4;" vertex="1" parent="1">
          <mxGeometry x="460" y="110" width="120" height="60" as="geometry" />
        </mxCell>
        <mxCell id="E11eB3YZprWoZ26BGaYE-3" value="Company" style="rounded=0;whiteSpace=wrap;html=1;fillColor=#D5E8D4;" vertex="1" parent="1">
          <mxGeometry x="780" y="110" width="120" height="60" as="geometry" />
        </mxCell>
        <mxCell id="E11eB3YZprWoZ26BGaYE-4" value="Credit Card" style="rounded=0;whiteSpace=wrap;html=1;fillColor=#D5E8D4;" vertex="1" parent="1">
          <mxGeometry x="140" y="390" width="120" height="60" as="geometry" />
        </mxCell>
        <mxCell id="E11eB3YZprWoZ26BGaYE-5" value="Shopping Cart" style="rounded=0;whiteSpace=wrap;html=1;fillColor=#D5E8D4;" vertex="1" parent="1">
          <mxGeometry x="460" y="390" width="120" height="60" as="geometry" />
        </mxCell>
        <mxCell id="E11eB3YZprWoZ26BGaYE-21" style="edgeStyle=orthogonalEdgeStyle;rounded=0;orthogonalLoop=1;jettySize=auto;html=1;exitX=0.5;exitY=1;exitDx=0;exitDy=0;entryX=0.5;entryY=0;entryDx=0;entryDy=0;fillColor=#FFB570;" edge="1" parent="1" source="E11eB3YZprWoZ26BGaYE-6" target="E11eB3YZprWoZ26BGaYE-4">
          <mxGeometry relative="1" as="geometry" />
        </mxCell>
        <mxCell id="E11eB3YZprWoZ26BGaYE-6" value="pay via" style="rhombus;whiteSpace=wrap;html=1;fillColor=#E6D0DE;" vertex="1" parent="1">
          <mxGeometry x="160" y="240" width="80" height="80" as="geometry" />
        </mxCell>
        <mxCell id="E11eB3YZprWoZ26BGaYE-19" style="edgeStyle=orthogonalEdgeStyle;rounded=0;orthogonalLoop=1;jettySize=auto;html=1;entryX=0.5;entryY=0;entryDx=0;entryDy=0;fillColor=#FFB570;" edge="1" parent="1" source="E11eB3YZprWoZ26BGaYE-7" target="E11eB3YZprWoZ26BGaYE-5">
          <mxGeometry relative="1" as="geometry" />
        </mxCell>
        <mxCell id="E11eB3YZprWoZ26BGaYE-7" value="stored on" style="rhombus;whiteSpace=wrap;html=1;fillColor=#E6D0DE;" vertex="1" parent="1">
          <mxGeometry x="480" y="240" width="80" height="80" as="geometry" />
        </mxCell>
        <mxCell id="E11eB3YZprWoZ26BGaYE-15" style="edgeStyle=orthogonalEdgeStyle;rounded=0;orthogonalLoop=1;jettySize=auto;html=1;entryX=0;entryY=0.5;entryDx=0;entryDy=0;fillColor=#FFB570;" edge="1" parent="1" source="E11eB3YZprWoZ26BGaYE-8" target="E11eB3YZprWoZ26BGaYE-2">
          <mxGeometry relative="1" as="geometry" />
        </mxCell>
        <mxCell id="E11eB3YZprWoZ26BGaYE-8" value="orders" style="rhombus;whiteSpace=wrap;html=1;fillColor=#E6D0DE;" vertex="1" parent="1">
          <mxGeometry x="320" y="100" width="80" height="80" as="geometry" />
        </mxCell>
        <mxCell id="E11eB3YZprWoZ26BGaYE-17" style="edgeStyle=orthogonalEdgeStyle;rounded=0;orthogonalLoop=1;jettySize=auto;html=1;fillColor=#FFB570;" edge="1" parent="1" source="E11eB3YZprWoZ26BGaYE-9" target="E11eB3YZprWoZ26BGaYE-3">
          <mxGeometry relative="1" as="geometry" />
        </mxCell>
        <mxCell id="E11eB3YZprWoZ26BGaYE-9" value="produced by" style="rhombus;whiteSpace=wrap;html=1;fillColor=#E6D0DE;" vertex="1" parent="1">
          <mxGeometry x="640" y="100" width="80" height="80" as="geometry" />
        </mxCell>
        <mxCell id="E11eB3YZprWoZ26BGaYE-22" style="edgeStyle=orthogonalEdgeStyle;rounded=0;orthogonalLoop=1;jettySize=auto;html=1;entryX=0.25;entryY=0;entryDx=0;entryDy=0;fillColor=#FFB570;" edge="1" parent="1" source="E11eB3YZprWoZ26BGaYE-10" target="E11eB3YZprWoZ26BGaYE-1">
          <mxGeometry relative="1" as="geometry" />
        </mxCell>
        <mxCell id="E11eB3YZprWoZ26BGaYE-10" value="&lt;u&gt;CustomerID&lt;/u&gt;" style="ellipse;whiteSpace=wrap;html=1;fillColor=#FFB570;" vertex="1" parent="1">
          <mxGeometry x="-20" y="60" width="120" height="40" as="geometry" />
        </mxCell>
        <mxCell id="E11eB3YZprWoZ26BGaYE-23" style="edgeStyle=orthogonalEdgeStyle;rounded=0;orthogonalLoop=1;jettySize=auto;html=1;entryX=0.75;entryY=0;entryDx=0;entryDy=0;fillColor=#FFB570;" edge="1" parent="1" source="E11eB3YZprWoZ26BGaYE-11" target="E11eB3YZprWoZ26BGaYE-1">
          <mxGeometry relative="1" as="geometry" />
        </mxCell>
        <mxCell id="E11eB3YZprWoZ26BGaYE-11" value="Email Address" style="ellipse;whiteSpace=wrap;html=1;fillColor=#FFB570;" vertex="1" parent="1">
          <mxGeometry x="260" y="30" width="120" height="40" as="geometry" />
        </mxCell>
        <mxCell id="E11eB3YZprWoZ26BGaYE-24" style="edgeStyle=orthogonalEdgeStyle;rounded=0;orthogonalLoop=1;jettySize=auto;html=1;exitX=0.5;exitY=0;exitDx=0;exitDy=0;entryX=0.75;entryY=1;entryDx=0;entryDy=0;fillColor=#FFB570;" edge="1" parent="1" source="E11eB3YZprWoZ26BGaYE-12" target="E11eB3YZprWoZ26BGaYE-1">
          <mxGeometry relative="1" as="geometry" />
        </mxCell>
        <mxCell id="E11eB3YZprWoZ26BGaYE-12" value="Name" style="ellipse;whiteSpace=wrap;html=1;fillColor=#FFB570;" vertex="1" parent="1">
          <mxGeometry x="260" y="210" width="120" height="40" as="geometry" />
        </mxCell>
        <mxCell id="E11eB3YZprWoZ26BGaYE-25" style="edgeStyle=orthogonalEdgeStyle;rounded=0;orthogonalLoop=1;jettySize=auto;html=1;entryX=0.25;entryY=1;entryDx=0;entryDy=0;fillColor=#FFB570;" edge="1" parent="1" source="E11eB3YZprWoZ26BGaYE-13" target="E11eB3YZprWoZ26BGaYE-1">
          <mxGeometry relative="1" as="geometry" />
        </mxCell>
        <mxCell id="E11eB3YZprWoZ26BGaYE-13" value="Postal Address" style="ellipse;whiteSpace=wrap;html=1;fillColor=#FFB570;" vertex="1" parent="1">
          <mxGeometry x="-20" y="170" width="120" height="40" as="geometry" />
        </mxCell>
        <mxCell id="E11eB3YZprWoZ26BGaYE-31" style="edgeStyle=orthogonalEdgeStyle;rounded=0;orthogonalLoop=1;jettySize=auto;html=1;entryX=0.25;entryY=0;entryDx=0;entryDy=0;fillColor=#FFB570;" edge="1" parent="1" source="E11eB3YZprWoZ26BGaYE-26" target="E11eB3YZprWoZ26BGaYE-2">
          <mxGeometry relative="1" as="geometry" />
        </mxCell>
        <mxCell id="E11eB3YZprWoZ26BGaYE-26" value="&lt;u&gt;ItemID&lt;/u&gt;" style="ellipse;whiteSpace=wrap;html=1;fillColor=#FFB570;" vertex="1" parent="1">
          <mxGeometry x="400" y="30" width="120" height="40" as="geometry" />
        </mxCell>
        <mxCell id="E11eB3YZprWoZ26BGaYE-30" style="edgeStyle=orthogonalEdgeStyle;rounded=0;orthogonalLoop=1;jettySize=auto;html=1;entryX=0.75;entryY=1;entryDx=0;entryDy=0;fillColor=#FFB570;" edge="1" parent="1" source="E11eB3YZprWoZ26BGaYE-27" target="E11eB3YZprWoZ26BGaYE-2">
          <mxGeometry relative="1" as="geometry" />
        </mxCell>
        <mxCell id="E11eB3YZprWoZ26BGaYE-27" value="Price" style="ellipse;whiteSpace=wrap;html=1;fillColor=#FFB570;" vertex="1" parent="1">
          <mxGeometry x="560" y="210" width="120" height="40" as="geometry" />
        </mxCell>
        <mxCell id="E11eB3YZprWoZ26BGaYE-35" style="edgeStyle=orthogonalEdgeStyle;rounded=0;orthogonalLoop=1;jettySize=auto;html=1;exitX=0.5;exitY=1;exitDx=0;exitDy=0;entryX=0.5;entryY=0;entryDx=0;entryDy=0;fillColor=#FFB570;" edge="1" parent="1" source="E11eB3YZprWoZ26BGaYE-28" target="E11eB3YZprWoZ26BGaYE-3">
          <mxGeometry relative="1" as="geometry" />
        </mxCell>
        <mxCell id="E11eB3YZprWoZ26BGaYE-28" value="&lt;u&gt;CompanyID&lt;/u&gt;" style="ellipse;whiteSpace=wrap;html=1;fillColor=#FFB570;" vertex="1" parent="1">
          <mxGeometry x="780" y="30" width="120" height="40" as="geometry" />
        </mxCell>
        <mxCell id="E11eB3YZprWoZ26BGaYE-32" style="edgeStyle=orthogonalEdgeStyle;rounded=0;orthogonalLoop=1;jettySize=auto;html=1;entryX=0.75;entryY=0;entryDx=0;entryDy=0;fillColor=#FFB570;" edge="1" parent="1" source="E11eB3YZprWoZ26BGaYE-29" target="E11eB3YZprWoZ26BGaYE-2">
          <mxGeometry relative="1" as="geometry" />
        </mxCell>
        <mxCell id="E11eB3YZprWoZ26BGaYE-29" value="Name" style="ellipse;whiteSpace=wrap;html=1;fillColor=#FFB570;" vertex="1" parent="1">
          <mxGeometry x="560" y="30" width="120" height="40" as="geometry" />
        </mxCell>
        <mxCell id="E11eB3YZprWoZ26BGaYE-34" style="edgeStyle=orthogonalEdgeStyle;rounded=0;orthogonalLoop=1;jettySize=auto;html=1;exitX=0.5;exitY=0;exitDx=0;exitDy=0;entryX=0.5;entryY=1;entryDx=0;entryDy=0;fillColor=#FFB570;" edge="1" parent="1" source="E11eB3YZprWoZ26BGaYE-33" target="E11eB3YZprWoZ26BGaYE-3">
          <mxGeometry relative="1" as="geometry" />
        </mxCell>
        <mxCell id="E11eB3YZprWoZ26BGaYE-33" value="Company Name" style="ellipse;whiteSpace=wrap;html=1;fillColor=#FFB570;" vertex="1" parent="1">
          <mxGeometry x="780" y="210" width="120" height="40" as="geometry" />
        </mxCell>
        <mxCell id="E11eB3YZprWoZ26BGaYE-47" style="edgeStyle=orthogonalEdgeStyle;rounded=0;orthogonalLoop=1;jettySize=auto;html=1;exitX=1;exitY=0.5;exitDx=0;exitDy=0;entryX=0.25;entryY=0;entryDx=0;entryDy=0;fillColor=#FFB570;" edge="1" parent="1" source="E11eB3YZprWoZ26BGaYE-36" target="E11eB3YZprWoZ26BGaYE-4">
          <mxGeometry relative="1" as="geometry" />
        </mxCell>
        <mxCell id="E11eB3YZprWoZ26BGaYE-36" value="Card Number" style="ellipse;whiteSpace=wrap;html=1;fillColor=#FFB570;" vertex="1" parent="1">
          <mxGeometry x="-20" y="340" width="120" height="40" as="geometry" />
        </mxCell>
        <mxCell id="E11eB3YZprWoZ26BGaYE-48" style="edgeStyle=orthogonalEdgeStyle;rounded=0;orthogonalLoop=1;jettySize=auto;html=1;entryX=1;entryY=0.25;entryDx=0;entryDy=0;fillColor=#FFB570;" edge="1" parent="1" source="E11eB3YZprWoZ26BGaYE-37" target="E11eB3YZprWoZ26BGaYE-4">
          <mxGeometry relative="1" as="geometry" />
        </mxCell>
        <mxCell id="E11eB3YZprWoZ26BGaYE-37" value="&lt;u&gt;CreditCardID&lt;/u&gt;" style="ellipse;whiteSpace=wrap;html=1;fillColor=#FFB570;" vertex="1" parent="1">
          <mxGeometry x="240" y="320" width="120" height="40" as="geometry" />
        </mxCell>
        <mxCell id="E11eB3YZprWoZ26BGaYE-43" style="edgeStyle=orthogonalEdgeStyle;rounded=0;orthogonalLoop=1;jettySize=auto;html=1;entryX=1;entryY=0.5;entryDx=0;entryDy=0;fillColor=#FFB570;" edge="1" parent="1" source="E11eB3YZprWoZ26BGaYE-38" target="E11eB3YZprWoZ26BGaYE-5">
          <mxGeometry relative="1" as="geometry" />
        </mxCell>
        <mxCell id="E11eB3YZprWoZ26BGaYE-38" value="Total-Price" style="ellipse;whiteSpace=wrap;html=1;fillColor=#FFB570;" vertex="1" parent="1">
          <mxGeometry x="640" y="400" width="120" height="40" as="geometry" />
        </mxCell>
        <mxCell id="E11eB3YZprWoZ26BGaYE-42" style="edgeStyle=orthogonalEdgeStyle;rounded=0;orthogonalLoop=1;jettySize=auto;html=1;entryX=0.75;entryY=0;entryDx=0;entryDy=0;fillColor=#FFB570;" edge="1" parent="1" source="E11eB3YZprWoZ26BGaYE-39" target="E11eB3YZprWoZ26BGaYE-5">
          <mxGeometry relative="1" as="geometry">
            <Array as="points">
              <mxPoint x="630" y="370" />
              <mxPoint x="550" y="370" />
            </Array>
          </mxGeometry>
        </mxCell>
        <mxCell id="E11eB3YZprWoZ26BGaYE-39" value="Quantity" style="ellipse;whiteSpace=wrap;html=1;fillColor=#FFB570;" vertex="1" parent="1">
          <mxGeometry x="570" y="320" width="120" height="40" as="geometry" />
        </mxCell>
        <mxCell id="E11eB3YZprWoZ26BGaYE-41" style="edgeStyle=orthogonalEdgeStyle;rounded=0;orthogonalLoop=1;jettySize=auto;html=1;entryX=0.5;entryY=1;entryDx=0;entryDy=0;fillColor=#FFB570;" edge="1" parent="1" source="E11eB3YZprWoZ26BGaYE-40" target="E11eB3YZprWoZ26BGaYE-5">
          <mxGeometry relative="1" as="geometry" />
        </mxCell>
        <mxCell id="E11eB3YZprWoZ26BGaYE-40" value="&lt;u&gt;CartID&lt;/u&gt;" style="ellipse;whiteSpace=wrap;html=1;fillColor=#FFB570;" vertex="1" parent="1">
          <mxGeometry x="460" y="490" width="120" height="40" as="geometry" />
        </mxCell>
        <mxCell id="E11eB3YZprWoZ26BGaYE-49" style="edgeStyle=orthogonalEdgeStyle;rounded=0;orthogonalLoop=1;jettySize=auto;html=1;entryX=1;entryY=0.75;entryDx=0;entryDy=0;fillColor=#FFB570;" edge="1" parent="1" source="E11eB3YZprWoZ26BGaYE-44" target="E11eB3YZprWoZ26BGaYE-4">
          <mxGeometry relative="1" as="geometry" />
        </mxCell>
        <mxCell id="E11eB3YZprWoZ26BGaYE-44" value="Verification Status" style="ellipse;whiteSpace=wrap;html=1;fillColor=#FFB570;" vertex="1" parent="1">
          <mxGeometry x="240" y="490" width="120" height="40" as="geometry" />
        </mxCell>
        <mxCell id="E11eB3YZprWoZ26BGaYE-46" style="edgeStyle=orthogonalEdgeStyle;rounded=0;orthogonalLoop=1;jettySize=auto;html=1;entryX=0.25;entryY=1;entryDx=0;entryDy=0;fillColor=#FFB570;" edge="1" parent="1" source="E11eB3YZprWoZ26BGaYE-45" target="E11eB3YZprWoZ26BGaYE-4">
          <mxGeometry relative="1" as="geometry" />
        </mxCell>
        <mxCell id="E11eB3YZprWoZ26BGaYE-45" value="Expiry Date" style="ellipse;whiteSpace=wrap;html=1;fillColor=#FFB570;" vertex="1" parent="1">
          <mxGeometry x="-20" y="470" width="120" height="40" as="geometry" />
        </mxCell>
      </root>
    </mxGraphModel>
  </diagram>
</mxfile>
